<mxfile
  host="Electron" 
  agent="Mozilla/5.0 (Macintosh; Intel Mac OS X 10_15_7) AppleWebKit/537.36 (KHTML, like Gecko) draw.io/25.0.2 Chrome/128.0.6613.186 Electron/32.2.5 Safari/537.36" 
  version="25.0.2"
  >
  <diagram
    name="-"
    >
    <mxGraphModel
      grid="1" 
      gridSize="10" 
      guides="1" 
      tooltips="1" 
      connect="1" 
      arrows="1" 
      fold="1" 
      page="1" 
      pageScale="1" 
      pageWidth="1" 
      pageHeight="1" 
      math="0" 
      shadow="0"
      >
      <root>
        <mxCell
          id="page"
          />
        <mxCell
          id="root" 
          parent="page"
          />
        <mxCell
          style="verticalAlign=top;aspect=fixed;align=center;spacingLeft=5;spacingRight=5;spacingBottom=5;strokeColor=none;" 
          id="shape_" 
          parent="root" 
          value=" " 
          vertex="1"
          >
          <mxGeometry
            as="geometry" 
            width="40" 
            height="40" 
            x="0" 
            y="0"
            />
          </mxCell>
        <mxCell
          style="editableCssRules=.*;html=1;shape=image;verticalLabelPosition=bottom;labelBackgroundColor=#ffffff;verticalAlign=top;aspect=fixed;imageAspect=0;image=data:image/svg+xml,PHN2ZyB4bWxucz0iaHR0cDovL3d3dy53My5vcmcvMjAwMC9zdmciIHhtbG5zOnY9Imh0dHBzOi8vdmVjdGEuaW8vbmFubyIgd2lkdGg9IjIwIiBoZWlnaHQ9IjIwIiB2aWV3Qm94PSIwIDAgMjAgMjAiPiYjeGE7CTxzdHlsZSB0eXBlPSJ0ZXh0L2NzcyI+JiN4YTsJLnN0MHtmaWxsOiM0Mjg1ZjQ7fSYjeGE7CTwvc3R5bGU+JiN4YTsJPHBhdGggY2xhc3M9InN0MCIgZD0iTTEzLjMzIDB2Mi4zOGgtMi4xNlYwSDguODN2Mi4zOEg2LjY3VjBINC4yOXYyLjM4YTIgMiAwIDAgMC0xLjkxIDEuOTFIMHYyLjM4aDIuMzh2Mi4xNEgwdjIuMzhoMi4zOHYyLjE0SDB2Mi4zOGgyLjM4YTIgMiAwIDAgMCAxLjkxIDEuOTFWMjBoMi4zOHYtMi4zOGgyLjE2VjIwaDIuMzR2LTIuMzhoMi4xNlYyMGgyLjM4di0yLjM4YTIgMiAwIDAgMCAxLjkxLTEuOTFIMjB2LTIuMzhoLTIuMzh2LTIuMTRIMjBWOC44MWgtMi4zOFY2LjY3SDIwVjQuMjloLTIuMzhhMiAyIDAgMCAwLTEuOTEtMS45MVYwem0xLjUzIDE1LjI0SDUuMTRhLjM4LjM4IDAgMCAxLS4zOC0uMzhWNS4xNGEuMzguMzggMCAwIDEgLjM4LS4zOGg5LjcyYS4zOC4zOCAwIDAgMSAuMzguMzh2OS43MmEuMzguMzggMCAwIDEtLjM4LjM4em0tMi4wNy02LjEybC0zLjUgNC44NnYtMy42M0g3LjIybDMuNjEtNC44MXYzLjU4eiIvPiYjeGE7PC9zdmc+;strokeColor=none;" 
          id="cloud_gpu_" 
          parent="shape_" 
          value=" " 
          vertex="1"
          >
          <mxGeometry
            width="20" 
            height="20" 
            as="geometry" 
            x="10" 
            y="10"
            />
          </mxCell>
        </root>
      </mxGraphModel>
    </diagram>
  </mxfile>